<?xml version="1.0" encoding="UTF-8"?>
<svg id="Layer_2" data-name="Layer 2" xmlns="http://www.w3.org/2000/svg" viewBox="0 0 549.25 577.43">
  <defs>
    <style>
      .cls-1 {
        stroke-width: 18.97px;
      }

      .cls-1, .cls-2 {
        fill: none;
        stroke: #fff;
        stroke-linecap: round;
        stroke-linejoin: round;
      }

      .cls-2 {
        stroke-width: 16.26px;
      }
    </style>
  </defs>
  <g id="_Layer_" data-name="&amp;lt;Layer&amp;gt;">
    <g>
      <path class="cls-1" d="M404.54,567.94h-247.68c-6.23,0-11.15-4.78-10.74-10.42l60.89-287.96h147.38l60.89,287.96c.41,5.64-4.52,10.42-10.74,10.42Z"/>
      <line class="cls-1" x1="208.59" y1="269.57" x2="352.82" y2="269.57"/>
      <polyline class="cls-1" points="9.49 9.48 175.18 9.79 175.81 46.18 9.54 45.88"/>
      <polyline class="cls-1" points="180.23 18.85 275.45 9.97 276.08 46.36 180.26 37.13"/>
      <rect class="cls-1" x="226.77" y="187.01" width="107.86" height="82.56"/>
      <line class="cls-1" x1="231.63" y1="243.53" x2="297.33" y2="243.53"/>
      <line class="cls-1" x1="231.63" y1="212.84" x2="288.44" y2="212.84"/>
      <line class="cls-1" x1="213.1" y1="425.38" x2="200.17" y2="493.26"/>
      <line class="cls-1" x1="220.63" y1="385.88" x2="218.66" y2="396.21"/>
      <path class="cls-1" d="M300.04,123.84c0,16.81-11.3,29.16-25.25,29.16s-25.25-12.35-25.25-29.16,21.35-41.24,25.25-80.98c5.91,34.61,25.25,64.17,25.25,80.98Z"/>
      <path class="cls-1" d="M477.54,197.63c0-42.58-19.65-62.23-62.23-62.23,42.58,0,62.23-19.65,62.23-62.23,0,42.58,19.65,62.23,62.23,62.23-42.58,0-62.23,19.65-62.23,62.23Z"/>
      <path class="cls-2" d="M61.04,386.42c0-29.47-13.6-43.08-43.08-43.08,29.47,0,43.08-13.6,43.08-43.08,0,29.47,13.6,43.08,43.08,43.08-29.47,0-43.08,13.6-43.08,43.08Z"/>
    </g>
  </g>
</svg>