<?xml version="1.0" encoding="UTF-8"?>
<svg id="Layer_2" data-name="Layer 2" xmlns="http://www.w3.org/2000/svg" viewBox="0 0 533.75 494.03">
  <defs>
    <style>
      .cls-1 {
        stroke-width: 18.97px;
      }

      .cls-1, .cls-2 {
        fill: none;
        stroke: #fff;
        stroke-linecap: round;
        stroke-linejoin: round;
      }

      .cls-2 {
        stroke-width: 16.26px;
      }
    </style>
  </defs>
  <g id="_Layer_" data-name="&amp;lt;Layer&amp;gt;">
    <g>
      <path class="cls-1" d="M434.9,133.94c0-42.58-19.65-62.23-62.23-62.23,42.58,0,62.23-19.65,62.23-62.23,0,42.58,19.65,62.23,62.23,62.23-42.58,0-62.23,19.65-62.23,62.23Z"/>
      <path class="cls-2" d="M334.81,217.41c0-29.47-13.6-43.08-43.08-43.08,29.47,0,43.08-13.6,43.08-43.08,0,29.47,13.6,43.08,43.08,43.08-29.47,0-43.08,13.6-43.08,43.08Z"/>
      <line class="cls-1" x1="318.43" y1="301.61" x2="524.27" y2="301.61"/>
      <path class="cls-1" d="M524.27,484.54H194.96c-62.02,0-112.3-50.28-112.3-112.3"/>
      <path class="cls-1" d="M249,369.7H77.58c-37.61,0-68.09-30.49-68.09-68.09h307.6c0,37.61-30.49,68.09-68.09,68.09Z"/>
      <g>
        <path class="cls-1" d="M226.76,171.3c0,40.88-33.14,70.9-74.01,70.9s-74.01-30.02-74.01-70.9S152.75,27.14,152.75,27.14c0,0,74.01,103.29,74.01,144.16Z"/>
        <path class="cls-1" d="M104.4,174.83c2.13,12.02,8.96,23.14,18.7,30.48"/>
      </g>
    </g>
  </g>
</svg>