<?xml version="1.0" encoding="utf-8"?>
<!-- Generator: Adobe Illustrator 30.8.1, SVG Export Plug-In . SVG Version: 9.03 Build 0)  -->
<svg version="1.0" id="Layer_1" xmlns="http://www.w3.org/2000/svg" xmlns:xlink="http://www.w3.org/1999/xlink" x="0px" y="0px"
	 viewBox="0 0 334.7 100" style="enable-background:new 0 0 334.7 100;" xml:space="preserve">
<style type="text/css">
	.st0{clip-path:url(#SVGID_00000079469387819138952320000003656372791778286749_);}
	.st1{clip-path:url(#SVGID_00000082342137962441457440000009839938787090534545_);}
	.st2{clip-path:url(#SVGID_00000017496984406423059000000016168710825768547514_);}
	.st3{clip-path:url(#SVGID_00000068658655287793922220000015247809432585897635_);}
	.st4{fill:#A8917E;}
	.st5{clip-path:url(#SVGID_00000012433833685047076900000005842835136290265987_);}
	.st6{clip-path:url(#SVGID_00000147204228368267555840000016614550005945460927_);}
	.st7{fill:#3A291F;}
</style>
<g transform="matrix(1, 0, 0, 1, 1, 28)">
	<g>
		<defs>
			<rect id="SVGID_1_" x="-1" y="-29" width="334.7" height="128"/>
		</defs>
		<clipPath id="SVGID_00000049201113490157973190000017171031692701392566_">
			<use xlink:href="#SVGID_1_"  style="overflow:visible;"/>
		</clipPath>
		<g style="clip-path:url(#SVGID_00000049201113490157973190000017171031692701392566_);">
			<g>
				<defs>
					<rect id="SVGID_00000101080029895445581560000006342852931998547584_" x="-0.1" y="-9" width="333.8" height="107.1"/>
				</defs>
				<clipPath id="SVGID_00000005947067864618071420000001226912387849528503_">
					<use xlink:href="#SVGID_00000101080029895445581560000006342852931998547584_"  style="overflow:visible;"/>
				</clipPath>
				<g style="clip-path:url(#SVGID_00000005947067864618071420000001226912387849528503_);">
					<g transform="matrix(1, 0, 0, 1, -0.000000000000000222, 15)">
						<g>
							<defs>
								<rect id="SVGID_00000039107355705532018210000014604965046910652602_" x="-1" y="-24" width="334.7" height="108"/>
							</defs>
							<clipPath id="SVGID_00000057845230960385248000000008841524963556902280_">
								<use xlink:href="#SVGID_00000039107355705532018210000014604965046910652602_"  style="overflow:visible;"/>
							</clipPath>
							<g style="clip-path:url(#SVGID_00000057845230960385248000000008841524963556902280_);">
								<g>
									<defs>
										<rect id="SVGID_00000016794636257170903540000008838566764031254150_" x="-0.1" y="-22.6" width="67.1" height="77.3"/>
									</defs>
									<clipPath id="SVGID_00000113326025631271703470000001196315107822972855_">
										<use xlink:href="#SVGID_00000016794636257170903540000008838566764031254150_"  style="overflow:visible;"/>
									</clipPath>
									<g style="clip-path:url(#SVGID_00000113326025631271703470000001196315107822972855_);">
										<g>
											<g transform="translate(0.749851, 58.931352)">
												<g>
													<path class="st4" d="M-0.8-4.3v-0.3l6.4-2.9l23.6-65.3l-2.7-7.5H33L59-7.5l6.4,2.9v0.3H46.3v-0.3l6.2-2.7l-6.2-17.2
														H16.9l-5,17.2l6.2,2.7v0.3H-0.8z M30-70.5L17.3-26.2h28.5L30-70.5z"/>
												</g>
											</g>
										</g>
									</g>
								</g>
								<g>
									<g transform="translate(45.270195, 58.931352)">
										<g>
											<path class="st4" d="M15.6-80.4h17v0.3l-5.5,2.7v56.2c0,4.3,0.8,7.7,2.4,10.1c1.6,2.4,3.8,4.1,6.7,5.1
												c2.9,1,6.2,1.5,10.1,1.5c3.9,0,7.2-0.5,10.1-1.5c2.9-1,5.1-2.7,6.7-5.1c1.6-2.4,2.4-5.8,2.4-10.1v-56.2L60-80v-0.3h17
												v0.3l-5.5,2.7v52.4c0,2.6-0.4,5.2-1.1,7.8c-0.7,2.6-2,5-3.8,7.1c-1.8,2.2-4.4,3.9-7.7,5.2c-3.3,1.3-7.6,2-12.7,2
												c-5.2,0-9.4-0.7-12.7-2c-3.3-1.3-5.8-3.1-7.6-5.2c-1.8-2.2-3.1-4.5-3.8-7.1c-0.7-2.6-1.1-5.2-1.1-7.8v-52.4L15.6-80
												V-80.4z"/>
										</g>
									</g>
								</g>
								<g>
									<g transform="translate(88.536409, 58.931352)">
										<g>
											<path class="st4" d="M30-80v-0.3h26.4c4.1,0,7.7,0.8,10.9,2.2c3.2,1.5,6,3.5,8.4,6.1c2.4,2.6,4.3,5.5,5.9,8.8
												c1.5,3.3,2.7,6.7,3.5,10.3c0.8,3.6,1.1,7.1,1.1,10.6c0,3.5-0.4,7-1.1,10.6c-0.8,3.6-1.9,7-3.5,10.3
												c-1.5,3.3-3.5,6.2-5.9,8.8c-2.3,2.6-5.1,4.6-8.4,6.1c-3.2,1.5-6.9,2.2-10.9,2.2H30v-0.3l5.5-2.7v-69.9L30-80z M41.6-77.3
												v69.9c1.3,0.5,2.7,0.9,4.2,1.1c1.5,0.2,2.9,0.3,4.3,0.4c1.4,0,2.5,0.1,3.4,0.1c4.4,0,8.2-1,11.5-3c3.3-2,6.1-4.7,8.2-8.1
												c2.2-3.4,3.9-7.3,4.9-11.7c1.1-4.4,1.6-8.9,1.6-13.7c0-4.6-0.6-9-1.6-13.4c-1.1-4.4-2.7-8.3-4.9-11.7
												c-2.2-3.5-4.9-6.2-8.2-8.3c-3.3-2.1-7.1-3.1-11.5-3.1c-0.9,0-2,0-3.4,0.1c-1.4,0-2.8,0.2-4.3,0.4
												C44.3-78.2,42.9-77.8,41.6-77.3z"/>
										</g>
									</g>
								</g>
								<g>
									<g transform="translate(129.522384, 58.931352)">
										<g>
											<path class="st4" d="M43.7-4.7l5.5-2.7v-69.9L43.7-80v-0.3h28.9c1.9,0,3.9,0.2,6.1,0.5c2.2,0.3,4.4,0.9,6.6,1.7
												c2.2,0.8,4.2,1.9,6,3.4c1.8,1.4,3.3,3.3,4.4,5.4c1.1,2.2,1.7,4.8,1.7,8c0,3.1-0.9,6.2-2.7,9.1c-1.8,2.9-4.5,5.3-8.1,7.1
												c-3.6,1.8-8.2,2.8-13.8,2.8L91-7.6l7.1,2.9v0.4H79.1v-0.3l5-2.7l-18-35H55.3v35l5.5,2.7v0.3h-17V-4.7z M55.3-43.9h14.4
												c4.1,0,7.8-0.8,11-2.2c3.2-1.5,5.8-3.6,7.6-6.2c1.8-2.6,2.8-5.6,2.8-9c0-4.6-1-8.1-3-10.6c-2-2.5-4.8-4.3-8.4-5.4
												c-3.6-1-7.8-1.6-12.5-1.6c-0.9,0-2,0-3.4,0.1c-1.4,0-2.8,0.2-4.3,0.4c-1.5,0.2-2.9,0.6-4.2,1.1V-43.9z"/>
										</g>
									</g>
								</g>
								<g>
									<g transform="translate(169.311238, 58.931352)">
										<g>
											<path class="st4" d="M57-80.4h49.5v16.1h-0.8l-4.8-14.7c-2.4,0.1-4.8,0.1-7.2,0c-2.3,0-4.7,0-7.1,0c-1.7,0-3.7,0-5.9,0.1
												c-2.2,0.1-4.4,0.2-6.5,0.5c-2.2,0.2-4,0.5-5.6,0.9v23.4h23.1l3.7-10.5h0.3v22.5h-0.3l-3.7-10.5H68.5v45
												c1.6,0.4,3.5,0.7,5.6,1C76.3-6.2,78.5-6,80.7-6c2.2,0.1,4.2,0.1,5.9,0.1c2.4,0.1,4.8,0.1,7.1,0c2.4,0,4.8,0,7.2,0
												l4.8-14.6h0.8v16H57v-0.3l5.5-2.7v-69.9L57-80V-80.4z"/>
										</g>
									</g>
								</g>
								<g>
									<g transform="translate(204.767647, 58.931352)">
										<g>
											<path class="st4" d="M72.9-77.2L67.3-80v-0.3h15.9v0.3l-4.6,2.7L99.4-39l16-38.3l-4.8-2.7v-0.3h17.1v0.3l-5.6,2.9
												l-21.6,39.5v30.2l5.5,2.7v0.3H89v-0.3l5.5-2.7v-30.2L72.9-77.2z"/>
										</g>
									</g>
								</g>
							</g>
						</g>
					</g>
				</g>
			</g>
			<g>
				<defs>
					<rect id="SVGID_00000145025455242435981250000012919116991635161729_" x="81.7" y="-27.9" width="168" height="37.6"/>
				</defs>
				<clipPath id="SVGID_00000149360686295464132070000001306435241687519883_">
					<use xlink:href="#SVGID_00000145025455242435981250000012919116991635161729_"  style="overflow:visible;"/>
				</clipPath>
				<g style="clip-path:url(#SVGID_00000149360686295464132070000001306435241687519883_);">
					<g transform="matrix(1, 0, 0, 1, 62, -0.000000000000014211)">
						<g>
							<defs>
								<rect id="SVGID_00000114057253924165932940000011410037638161227434_" x="19.7" y="-29" width="168" height="38.7"/>
							</defs>
							<clipPath id="SVGID_00000021832123137516294610000011572593081047763609_">
								<use xlink:href="#SVGID_00000114057253924165932940000011410037638161227434_"  style="overflow:visible;"/>
							</clipPath>
							<g style="clip-path:url(#SVGID_00000021832123137516294610000011572593081047763609_);">
								<g>
									<g transform="translate(0.819829, 21.376683)">
										<g>
											<path class="st7" d="M26-31.1l-5.4-16.5h3l4,12.6l4-12.6h2.7l-5.5,16.5v9.2H26V-31.1z"/>
										</g>
									</g>
								</g>
								<g>
									<g transform="translate(11.991134, 21.376683)">
										<g>
											<path class="st7" d="M24.9-41.3c0-2,0.5-3.6,1.4-4.7c1-1.2,2.4-1.8,4.4-1.8c2,0,3.4,0.6,4.4,1.8c1,1.2,1.5,2.7,1.5,4.7
												v13.3c0,2-0.5,3.5-1.5,4.7c-1,1.2-2.4,1.8-4.4,1.8c-2,0-3.5-0.6-4.4-1.8c-1-1.2-1.4-2.8-1.4-4.7V-41.3z M27.7-27.9
												c0,1.2,0.2,2.1,0.8,2.8c0.5,0.6,1.3,1,2.3,1c1,0,1.8-0.3,2.3-1c0.5-0.7,0.8-1.6,0.8-2.8v-13.6c0-1.2-0.2-2.1-0.8-2.7
												c-0.5-0.7-1.3-1-2.3-1c-1,0-1.8,0.3-2.3,1c-0.5,0.6-0.8,1.6-0.8,2.7V-27.9z"/>
										</g>
									</g>
								</g>
								<g>
									<g transform="translate(22.694681, 21.376683)">
										<g>
											<path class="st7" d="M31.4-27.9c0,1.2,0.2,2.1,0.7,2.8c0.5,0.6,1.2,1,2.3,1c1,0,1.8-0.3,2.2-1c0.5-0.7,0.7-1.6,0.7-2.8
												v-19.6h2.7v19.5c0,2-0.5,3.5-1.4,4.7c-0.9,1.2-2.4,1.8-4.4,1.8c-2,0-3.4-0.6-4.3-1.8c-0.9-1.2-1.4-2.8-1.4-4.7v-19.5h2.8
												V-27.9z"/>
										</g>
									</g>
								</g>
								<g>
									<g transform="translate(33.343197, 21.376683)">
										<g>
											<path class="st7" d="M38-47.5c2,0,3.5,0.5,4.4,1.5c0.9,1,1.4,2.5,1.4,4.4v2.1c0,1.4-0.3,2.6-0.8,3.5
												c-0.5,0.9-1.3,1.5-2.4,1.8c1.2,0.3,2,1,2.5,1.9c0.5,0.9,0.8,2.1,0.8,3.5v4c0,0.6,0,1.1,0.1,1.6c0.1,0.5,0.2,1,0.4,1.4
												h-2.9c-0.2-0.4-0.3-0.8-0.4-1.2c-0.1-0.4-0.1-1.1-0.1-1.9v-4c0-1.4-0.3-2.4-1-3c-0.6-0.6-1.6-0.8-2.8-0.8h-2v11h-2.9
												v-25.7H38z M37.2-35.4c1.2,0,2-0.2,2.7-0.7c0.6-0.5,1-1.4,1-2.8v-2.5c0-1.2-0.2-2-0.7-2.6c-0.4-0.6-1.2-0.9-2.3-0.9h-2.8
												v9.5H37.2z"/>
										</g>
									</g>
								</g>
								<g>
									<g transform="translate(44.184315, 21.376683)">
									</g>
								</g>
								<g>
									<g transform="translate(48.449228, 21.376683)">
										<g>
											<path class="st7" d="M39.8-21.9h-2.6v-25.7h3.6L46.8-29v-18.6h2.5v25.7h-3l-6.6-20.8V-21.9z"/>
										</g>
									</g>
								</g>
								<g>
									<g transform="translate(59.703086, 21.376683)">
										<g>
											<path class="st7" d="M43.9-27l-1,5.2h-2.6l4.9-25.7h4.1l4.9,25.7h-2.9l-1-5.2H43.9z M44.3-29.5H50l-2.9-14.8L44.3-29.5z"
												/>
										</g>
									</g>
								</g>
								<g>
									<g transform="translate(71.314639, 21.376683)">
										<g>
											<path class="st7" d="M47.8-47.5v25.7h-2.9v-25.7H47.8z"/>
										</g>
									</g>
								</g>
								<g>
									<g transform="translate(75.662093, 21.376683)">
										<g>
											<path class="st7" d="M46.3-21.9v-25.7h2.9v23.1h7.3v2.6H46.3z"/>
										</g>
									</g>
								</g>
								<g>
									<g transform="translate(84.934832, 21.376683)">
									</g>
								</g>
								<g>
									<g transform="translate(89.199746, 21.376683)">
										<g>
											<path class="st7" d="M56.4-47.8c2,0,3.4,0.6,4.4,1.8c0.9,1.2,1.4,2.7,1.4,4.7v2.2h-2.7v-2.4c0-1.2-0.2-2.1-0.7-2.7
												c-0.5-0.7-1.2-1-2.3-1c-1,0-1.8,0.3-2.3,1c-0.5,0.6-0.7,1.6-0.7,2.7v13.6c0,1.2,0.2,2.1,0.7,2.8c0.5,0.6,1.3,1,2.3,1
												c1.1,0,1.8-0.3,2.3-1c0.5-0.7,0.7-1.6,0.7-2.8V-33h-2.6v-2.6h5.4v7.5c0,2-0.5,3.5-1.4,4.7c-0.9,1.2-2.4,1.8-4.4,1.8
												c-2,0-3.4-0.6-4.4-1.8c-0.9-1.2-1.4-2.8-1.4-4.7v-13.3c0-1,0.1-1.9,0.3-2.7c0.2-0.8,0.6-1.5,1.1-2c0.5-0.6,1.1-1,1.8-1.3
												C54.6-47.6,55.4-47.8,56.4-47.8z"/>
										</g>
									</g>
								</g>
								<g>
									<g transform="translate(99.738199, 21.376683)">
										<g>
											<path class="st7" d="M57.2-47.5v25.7h-2.9v-25.7H57.2z"/>
										</g>
									</g>
								</g>
								<g>
									<g transform="translate(104.085653, 21.376683)">
										<g>
											<path class="st7" d="M61.5-47.5c2,0,3.5,0.5,4.4,1.5c0.9,1,1.4,2.5,1.4,4.4v2.1c0,1.4-0.3,2.6-0.8,3.5
												c-0.5,0.9-1.3,1.5-2.4,1.8c1.2,0.3,2,1,2.5,1.9c0.5,0.9,0.8,2.1,0.8,3.5v4c0,0.6,0,1.1,0.1,1.6c0.1,0.5,0.2,1,0.4,1.4
												h-2.9c-0.2-0.4-0.3-0.8-0.4-1.2c-0.1-0.4-0.1-1.1-0.1-1.9v-4c0-1.4-0.3-2.4-1-3c-0.6-0.6-1.6-0.8-2.8-0.8h-2v11h-2.9
												v-25.7H61.5z M60.8-35.4c1.2,0,2-0.2,2.7-0.7c0.6-0.5,1-1.4,1-2.8v-2.5c0-1.2-0.2-2-0.7-2.6c-0.4-0.6-1.2-0.9-2.3-0.9
												h-2.8v9.5H60.8z"/>
										</g>
									</g>
								</g>
								<g>
									<g transform="translate(114.926772, 21.376683)">
										<g>
											<path class="st7" d="M59.4-21.9v-25.7h2.9v23.1h7.3v2.6H59.4z"/>
										</g>
									</g>
								</g>
							</g>
						</g>
					</g>
				</g>
			</g>
		</g>
	</g>
</g>
</svg>
